<mxfile host="Electron" modified="2023-10-14T01:30:11.294Z" agent="Mozilla/5.0 (Windows NT 10.0; Win64; x64) AppleWebKit/537.36 (KHTML, like Gecko) draw.io/22.0.2 Chrome/114.0.5735.289 Electron/25.8.4 Safari/537.36" etag="ehhCTZU9Q9jKDLiLYGV9" version="22.0.2" type="device">
  <diagram name="PÃ¡gina-1" id="pdq7DfyfJwaA8wxfBtjF">
    <mxGraphModel dx="845" dy="503" grid="1" gridSize="10" guides="1" tooltips="1" connect="1" arrows="1" fold="1" page="1" pageScale="1" pageWidth="827" pageHeight="1169" math="0" shadow="0">
      <root>
        <mxCell id="0" />
        <mxCell id="1" parent="0" />
        <mxCell id="2bGt5oEarS-NO9finJ6x-1" value="inicio" style="ellipse;whiteSpace=wrap;html=1;" parent="1" vertex="1">
          <mxGeometry x="340" y="60" width="120" height="80" as="geometry" />
        </mxCell>
        <mxCell id="2bGt5oEarS-NO9finJ6x-2" value="" style="endArrow=classic;html=1;rounded=0;" parent="1" edge="1">
          <mxGeometry width="50" height="50" relative="1" as="geometry">
            <mxPoint x="399.5" y="140" as="sourcePoint" />
            <mxPoint x="400" y="180" as="targetPoint" />
          </mxGeometry>
        </mxCell>
        <mxCell id="2bGt5oEarS-NO9finJ6x-3" value="a" style="rounded=0;whiteSpace=wrap;html=1;" parent="1" vertex="1">
          <mxGeometry x="340" y="180" width="120" height="60" as="geometry" />
        </mxCell>
        <mxCell id="2bGt5oEarS-NO9finJ6x-4" value="" style="endArrow=classic;html=1;rounded=0;" parent="1" edge="1">
          <mxGeometry width="50" height="50" relative="1" as="geometry">
            <mxPoint x="399.72" y="240" as="sourcePoint" />
            <mxPoint x="400.22" y="280" as="targetPoint" />
          </mxGeometry>
        </mxCell>
        <mxCell id="2bGt5oEarS-NO9finJ6x-7" value="a=100" style="rounded=0;whiteSpace=wrap;html=1;" parent="1" vertex="1">
          <mxGeometry x="340" y="280" width="120" height="60" as="geometry" />
        </mxCell>
        <mxCell id="2bGt5oEarS-NO9finJ6x-9" value="" style="endArrow=classic;html=1;rounded=0;" parent="1" edge="1">
          <mxGeometry width="50" height="50" relative="1" as="geometry">
            <mxPoint x="399.75" y="450" as="sourcePoint" />
            <mxPoint x="400.25" y="490" as="targetPoint" />
          </mxGeometry>
        </mxCell>
        <mxCell id="2bGt5oEarS-NO9finJ6x-10" value="" style="endArrow=classic;html=1;rounded=0;" parent="1" edge="1">
          <mxGeometry width="50" height="50" relative="1" as="geometry">
            <mxPoint x="399.72" y="340" as="sourcePoint" />
            <mxPoint x="400.22" y="380" as="targetPoint" />
          </mxGeometry>
        </mxCell>
        <mxCell id="2bGt5oEarS-NO9finJ6x-12" value="- -" style="rounded=0;whiteSpace=wrap;html=1;" parent="1" vertex="1">
          <mxGeometry x="340" y="490" width="120" height="60" as="geometry" />
        </mxCell>
        <mxCell id="2bGt5oEarS-NO9finJ6x-15" value="a=0" style="rounded=0;whiteSpace=wrap;html=1;" parent="1" vertex="1">
          <mxGeometry x="340" y="400" width="120" height="60" as="geometry" />
        </mxCell>
        <mxCell id="oSntabCAs4oJirKbByPt-2" value="" style="endArrow=classic;html=1;rounded=0;" edge="1" parent="1">
          <mxGeometry width="50" height="50" relative="1" as="geometry">
            <mxPoint x="399.74" y="550" as="sourcePoint" />
            <mxPoint x="400.24" y="590" as="targetPoint" />
          </mxGeometry>
        </mxCell>
        <mxCell id="oSntabCAs4oJirKbByPt-3" value="fin" style="ellipse;whiteSpace=wrap;html=1;" vertex="1" parent="1">
          <mxGeometry x="340" y="590" width="120" height="80" as="geometry" />
        </mxCell>
      </root>
    </mxGraphModel>
  </diagram>
</mxfile>
